<svg width="152" height="32" viewBox="0 0 152 32" fill="none" xmlns="http://www.w3.org/2000/svg">
<circle cx="16" cy="16" r="16" fill="url(#paint0_linear_1_16)"/>
<path d="M10.1273 2.62878H11.1728V8.76304H10.6678C10.0868 8.76304 9.55663 8.98446 9.16187 9.34914C8.76682 9.71442 8.50442 10.2248 8.45979 10.8024C8.18072 14.3912 7.74411 18.2285 7.61285 21.7957C7.61177 22.3735 7.83308 22.9014 8.19802 23.2949C8.56249 23.6881 9.07244 23.9491 9.64911 23.9935L9.82794 24L22.171 24L22.3506 23.9935C22.9273 23.9488 23.4367 23.6878 23.8011 23.2949C24.1651 22.9022 24.3858 22.3748 24.3858 21.7964L24.3793 21.6182L23.5392 10.8021C23.4943 10.2244 23.2322 9.714 22.8371 9.34888C22.4422 8.98421 21.9122 8.76278 21.3312 8.76278H20.8273V2.62852H21.8728C22.4232 2.62852 22.9343 2.52752 23.4034 2.32569C23.877 2.12015 24.303 1.8153 24.68 1.41196L26 0L6 0L7.31998 1.41196C7.69712 1.81534 8.12304 2.12031 8.59161 2.3234C9.05861 2.52601 9.5728 2.62878 10.1273 2.62878ZM12.9503 2.62878L19.0495 2.62878V8.76304L12.9503 8.76304V2.62878ZM16.2941 16.5333C16.2103 16.6955 16.0104 16.7593 15.8479 16.6759C15.6854 16.5923 15.6215 16.3926 15.705 16.2304L17.1872 13.3807C17.2709 13.2185 17.4709 13.1546 17.6333 13.238C17.7958 13.3216 17.8597 13.5213 17.7762 13.6835L16.2941 16.5333ZM19.5724 12.8146C20.4867 13.7274 21.0523 14.9889 21.0523 16.3819C21.0523 17.775 20.4867 19.0363 19.5724 19.9491C18.6582 20.8619 17.3949 21.4266 15.9996 21.4266C14.6042 21.4266 13.3409 20.8619 12.4267 19.9491C11.5124 19.0363 10.9468 17.775 10.9468 16.3819C10.9468 14.989 11.5124 13.7274 12.4267 12.8146C13.3409 11.9018 14.6042 11.3371 15.9996 11.3371C17.3949 11.3371 18.6582 11.9018 19.5724 12.8146Z" fill="white"/>
<path d="M46.1732 11.9961C46.1732 11.0493 46.1336 10.3393 46.0546 9.86588C45.9756 9.36621 45.8175 8.94543 45.5805 8.60355C45.3434 8.26167 44.9615 7.86719 44.4346 7.42012L44.7902 6.9073H51.6653L51.9419 7.53846C51.336 7.88034 50.9014 8.18277 50.638 8.44576C50.3746 8.70874 50.1902 9.03747 50.0848 9.43195C50.0058 9.82643 49.9663 10.4444 49.9663 11.286V22.2919C49.9663 23.1335 50.0848 23.6857 50.3219 23.9487C50.559 24.2117 51.0858 24.3432 51.9024 24.3432H53.4038C54.1677 24.3432 54.7736 24.0934 55.2214 23.5937C55.6692 23.0677 56.1301 22.0815 56.6043 20.6351L57.3945 20.9112V25.645L56.9994 26C56.657 25.737 56.275 25.5529 55.8535 25.4477C55.4321 25.3688 54.7999 25.3294 53.957 25.3294H44.2371L44 24.6193C44.6585 24.4352 45.1327 24.2643 45.4224 24.1065C45.7122 23.9224 45.9097 23.6857 46.0151 23.3965C46.1205 23.1072 46.1732 22.6601 46.1732 22.0552V11.9961Z" fill="#171239"/>
<path d="M58.8555 18.9783C58.8555 16.9007 59.4482 15.2571 60.6336 14.0473C61.8452 12.8376 63.4784 12.2327 65.533 12.2327C67.5876 12.2327 69.2208 12.8508 70.4325 14.0868C71.6442 15.2965 72.25 16.927 72.25 18.9783C72.25 21.0296 71.6442 22.6601 70.4325 23.8698C69.2208 25.0796 67.5876 25.6844 65.533 25.6844C63.4784 25.6844 61.8452 25.0796 60.6336 23.8698C59.4482 22.6601 58.8555 21.0296 58.8555 18.9783ZM68.2593 19.0572C68.2593 17.2952 68.0091 15.8619 67.5086 14.7574C67.0081 13.6266 66.3759 13.0611 65.612 13.0611C64.7691 13.0611 64.0842 13.6134 63.5574 14.7179C63.0306 15.7962 62.7672 17.2163 62.7672 18.9783C62.7672 20.7666 63.0043 22.1867 63.4784 23.2387C63.9789 24.2906 64.6374 24.8166 65.454 24.8166C66.2706 24.8166 66.9423 24.2906 67.4691 23.2387C67.9959 22.1604 68.2593 20.7666 68.2593 19.0572Z" fill="#171239"/>
<path d="M78.6022 16.6114C78.049 16.927 77.3905 17.0848 76.6266 17.0848C76.0734 17.0848 75.6388 16.927 75.3227 16.6114C75.0066 16.2696 74.8485 15.7962 74.8485 15.1913C74.8485 14.2972 75.2832 13.5871 76.1524 13.0611C77.048 12.5089 78.2071 12.2327 79.6295 12.2327C81.3153 12.2327 82.6324 12.6009 83.5807 13.3373C84.5553 14.0736 85.0426 15.073 85.0426 16.3353V23.1598C85.0426 23.8961 85.306 24.2643 85.8328 24.2643C86.3333 24.2643 86.8206 24.0671 87.2948 23.6726L87.6109 24.0671C86.6362 25.1453 85.4772 25.6844 84.1338 25.6844C83.3436 25.6844 82.7377 25.4872 82.3163 25.0927C81.9212 24.6982 81.6841 24.0802 81.6051 23.2387H81.447C81.0256 24.0013 80.4592 24.6062 79.748 25.0533C79.0631 25.474 78.2729 25.6844 77.3773 25.6844C76.3763 25.6844 75.5729 25.382 74.9671 24.7771C74.3612 24.146 74.0583 23.3307 74.0583 22.3314C74.0583 21.2005 74.5983 20.3064 75.6783 19.6489C76.7583 18.9915 78.2202 18.6627 80.0641 18.6627C80.4065 18.6627 80.8939 18.689 81.526 18.7416V16.7692C81.526 15.4806 81.368 14.5602 81.0519 14.0079C80.7358 13.4293 80.2222 13.14 79.5109 13.14C79.0105 13.14 78.6153 13.2978 78.3256 13.6134C78.0358 13.929 77.891 14.3366 77.891 14.8363C77.891 15.6252 78.128 16.217 78.6022 16.6114ZM79.1948 23.712C80.749 23.712 81.526 22.3051 81.526 19.4911C80.209 19.4911 79.2212 19.7147 78.5627 20.1617C77.9041 20.5825 77.5749 21.1874 77.5749 21.9763C77.5749 22.5023 77.7197 22.9231 78.0095 23.2387C78.2992 23.5542 78.6944 23.712 79.1948 23.712Z" fill="#171239"/>
<path d="M103.583 24.0671C102.608 25.1453 101.462 25.6844 100.145 25.6844C99.3288 25.6844 98.7229 25.5135 98.3278 25.1716C97.9327 24.8034 97.6693 24.2117 97.5376 23.3965C96.8527 24.1854 96.1415 24.764 95.404 25.1321C94.6664 25.5003 93.8498 25.6844 92.9542 25.6844C91.6372 25.6844 90.5572 25.1059 89.7142 23.9487C88.8977 22.7916 88.4894 21.2926 88.4894 19.4517C88.4894 17.2426 89.0689 15.4938 90.2279 14.2051C91.3869 12.8902 92.9674 12.2327 94.9693 12.2327C95.8913 12.2327 96.7342 12.4431 97.4981 12.8639V8.48521C97.4981 8.11703 97.3269 7.93294 96.9844 7.93294H95.641L95.483 7.53846C96.0098 7.06509 96.6815 6.69691 97.4981 6.43392C98.3147 6.14464 99.1181 6 99.9083 6C100.251 6 100.527 6.0789 100.738 6.23669C100.949 6.36818 101.054 6.56542 101.054 6.8284V23.0809C101.054 23.8698 101.304 24.2643 101.805 24.2643C102.305 24.2643 102.793 24.0671 103.267 23.6726L103.583 24.0671ZM95.0088 23.7909C96.0098 23.7909 96.8395 23.2387 97.4981 22.1341V13.6529C96.9713 13.3899 96.3917 13.2584 95.7596 13.2584C93.5469 13.2584 92.4406 15.165 92.4406 18.9783C92.4406 20.5299 92.6513 21.7265 93.0728 22.568C93.5206 23.3833 94.1659 23.7909 95.0088 23.7909Z" fill="#171239"/>
<path d="M108.53 14.9152C108.53 15.5726 108.78 16.1118 109.281 16.5325C109.807 16.927 110.598 17.3741 111.651 17.8738C112.521 18.2945 113.192 18.6627 113.666 18.9783C114.141 19.2676 114.549 19.6621 114.891 20.1617C115.26 20.6614 115.444 21.2531 115.444 21.9369C115.444 23.0677 114.904 23.975 113.824 24.6588C112.771 25.3425 111.348 25.6844 109.557 25.6844C108.214 25.6844 107.107 25.4477 106.238 24.9744C105.369 24.4747 104.934 23.8304 104.934 23.0414C104.934 22.5154 105.132 22.0815 105.527 21.7396C105.922 21.3715 106.409 21.1874 106.989 21.1874C107.437 21.1874 107.885 21.2794 108.332 21.4635C107.885 21.8054 107.661 22.3577 107.661 23.1203C107.661 23.6463 107.845 24.0539 108.214 24.3432C108.583 24.6325 109.03 24.7771 109.557 24.7771C110.163 24.7771 110.677 24.6193 111.098 24.3037C111.546 23.9882 111.77 23.5411 111.77 22.9625C111.77 22.4103 111.546 21.9763 111.098 21.6607C110.677 21.3189 110.005 20.9244 109.083 20.4773C108.24 20.0828 107.555 19.7278 107.028 19.4122C106.528 19.0703 106.093 18.6233 105.725 18.071C105.356 17.5187 105.171 16.8481 105.171 16.0592C105.171 14.8757 105.672 13.9421 106.673 13.2584C107.674 12.5746 108.938 12.2327 110.466 12.2327C111.809 12.2327 112.903 12.4826 113.745 12.9822C114.615 13.4819 115.049 14.1262 115.049 14.9152C115.049 15.5201 114.865 15.9671 114.496 16.2564C114.127 16.5457 113.653 16.6903 113.074 16.6903C112.521 16.6903 112.033 16.572 111.612 16.3353C112.086 15.8882 112.323 15.3228 112.323 14.6391C112.323 14.192 112.152 13.8369 111.809 13.574C111.467 13.2847 111.019 13.14 110.466 13.14C109.86 13.14 109.386 13.311 109.044 13.6529C108.701 13.9947 108.53 14.4155 108.53 14.9152Z" fill="#171239"/>
<path d="M121.93 25.6844C120.85 25.6844 120.073 25.4477 119.599 24.9744C119.125 24.4747 118.888 23.6726 118.888 22.568V14.2051H116.912C116.912 13.7581 116.939 13.4688 116.991 13.3373C117.044 13.2058 117.202 13.1006 117.465 13.0217C118.335 12.785 119.02 12.4168 119.52 11.9172C120.021 11.4175 120.429 10.6943 120.745 9.74753C120.824 9.45825 120.956 9.28731 121.14 9.23471C121.324 9.15582 121.772 9.11637 122.483 9.11637V12.6667H125.723C125.723 13.0085 125.671 13.3241 125.565 13.6134C125.46 13.8764 125.315 14.0736 125.131 14.2051H122.483V23.0809C122.483 23.8698 122.813 24.2643 123.471 24.2643C123.761 24.2643 124.077 24.1723 124.42 23.9882C124.788 23.8041 125.118 23.5542 125.407 23.2387L125.723 23.6331C124.591 25.0007 123.326 25.6844 121.93 25.6844Z" fill="#171239"/>
<path d="M134.468 24.3826C135.231 24.3826 135.903 24.2512 136.483 23.9882C137.062 23.6989 137.629 23.2255 138.182 22.568L138.656 22.9231C138.05 23.7909 137.273 24.4747 136.325 24.9744C135.403 25.4477 134.389 25.6844 133.282 25.6844C132.071 25.6844 130.977 25.3951 130.003 24.8166C129.054 24.238 128.304 23.449 127.751 22.4497C127.197 21.4241 126.921 20.2669 126.921 18.9783C126.921 16.927 127.54 15.2965 128.778 14.0868C130.042 12.8508 131.715 12.2327 133.796 12.2327C135.271 12.2327 136.469 12.5878 137.391 13.2978C138.34 13.9816 138.814 14.8757 138.814 15.9803C138.814 17.2426 138.274 18.2551 137.194 19.0178C136.14 19.7541 134.691 20.1223 132.848 20.1223C132.11 20.1223 131.438 20.0697 130.832 19.9645C130.964 21.332 131.359 22.4103 132.018 23.1992C132.676 23.9882 133.493 24.3826 134.468 24.3826ZM133.361 13.1795C132.545 13.1795 131.899 13.6792 131.425 14.6785C130.977 15.6515 130.753 17.0191 130.753 18.7811V19.4122C131.043 19.4122 131.399 19.3859 131.82 19.3333C132.927 19.2018 133.77 18.8468 134.349 18.2682C134.955 17.6634 135.258 16.8744 135.258 15.9014C135.258 15.1124 135.073 14.4681 134.705 13.9684C134.362 13.4425 133.914 13.1795 133.361 13.1795Z" fill="#171239"/>
<path d="M149.155 12.2327C149.998 12.2327 150.683 12.4826 151.21 12.9822C151.737 13.4556 152 14.0736 152 14.8363C152 15.5464 151.789 16.1249 151.368 16.572C150.946 16.9928 150.393 17.2032 149.708 17.2032C149.181 17.2032 148.694 17.098 148.246 16.8876C148.721 16.4931 148.958 15.9014 148.958 15.1124C148.958 14.7442 148.879 14.455 148.721 14.2446C148.562 14.0342 148.352 13.929 148.088 13.929C147.456 13.929 146.929 14.5733 146.508 15.8619C146.086 17.1243 145.876 18.7022 145.876 20.5957C145.876 21.5687 145.928 22.3445 146.034 22.9231C146.165 23.5016 146.376 24.0408 146.666 24.5404L146.982 24.9349L146.666 25.3294H140.937L140.7 24.6588L141.253 24.5404C141.674 24.4352 141.951 24.2774 142.083 24.0671C142.214 23.8304 142.28 23.3833 142.28 22.7258V15.0335C142.28 14.5339 142.109 14.284 141.766 14.284H140.542L140.384 13.8501C140.884 13.403 141.503 13.0348 142.241 12.7456C143.004 12.4563 143.755 12.3116 144.493 12.3116C144.835 12.3116 145.112 12.3905 145.323 12.5483C145.533 12.7061 145.639 12.9165 145.639 13.1795V16.0592H145.757C146.31 13.5082 147.443 12.2327 149.155 12.2327Z" fill="#171239"/>
<defs>
<linearGradient id="paint0_linear_1_16" x1="0" y1="0" x2="32" y2="32" gradientUnits="userSpaceOnUse">
<stop stop-color="#0048D2"/>
<stop offset="1" stop-color="#0087D2"/>
</linearGradient>
</defs>
</svg>
