<svg width="166" height="40" viewBox="0 0 166 40" fill="none" xmlns="http://www.w3.org/2000/svg">
<path d="M22.221 31.4673C22.221 30.2149 21.2086 29.1993 19.9599 29.1993C18.71 29.1993 17.6975 30.2149 17.6975 31.4673V37.7345C17.6975 38.9845 18.7098 40 19.9599 40C21.2086 40 22.221 38.9845 22.221 37.7345V31.4673Z" fill="#000347"/>
<path d="M2.21003 22.2681H8.51575C9.76556 22.2681 10.778 21.2525 10.778 19.9999C10.778 18.7487 9.76563 17.7343 8.51575 17.7343H2.20995C0.98439 17.7636 0 18.7658 0 20C0 21.2354 0.98439 22.2364 2.21003 22.2657V22.2681Z" fill="#000347"/>
<path d="M10.2675 26.5064L5.84756 30.9352L5.84711 30.9353L5.84638 30.9359C5.84601 30.9362 5.84561 30.9368 5.84522 30.9376C5.84522 30.9376 5.8439 30.9376 5.8428 30.9401L5.80865 30.9743H5.80998C4.96329 31.8628 4.97545 33.2691 5.8453 34.1434C6.71757 35.0148 8.12098 35.0272 9.00791 34.18L13.4667 29.712C14.3512 28.8257 14.3512 27.3901 13.4667 26.5067C12.5845 25.6202 11.1519 25.6202 10.2675 26.5064Z" fill="#000347"/>
<path d="M19.9599 0C21.1915 0 22.1918 0.987616 22.221 2.21439V7.19894C23.1461 7.36299 24.0528 7.62762 24.9249 7.98957C25.7967 8.35141 26.6244 8.80658 27.3941 9.34579L30.872 5.86179C30.8725 5.86057 30.8728 5.85977 30.8732 5.85931C30.8734 5.85895 30.8738 5.85864 30.8744 5.85812C31.7576 4.97309 33.1903 4.97316 34.0733 5.85812C34.9565 6.74308 34.9565 8.17868 34.0733 9.06489L30.593 12.5512C31.1311 13.3224 31.5853 14.1517 31.9464 15.0251C32.3076 15.8989 32.5717 16.8075 32.7354 17.7344H37.6562C38.9061 17.7344 39.9196 18.7487 39.9196 20C39.9196 21.2525 38.9061 22.2681 37.6562 22.2681H32.735C32.5712 23.1942 32.3073 24.1019 31.9464 24.9749C31.5851 25.8487 31.1307 26.6783 30.5924 27.4497L34.0709 30.9352C34.0713 30.9352 34.0716 30.9352 34.0719 30.9354C34.0723 30.9356 34.0726 30.9362 34.0734 30.9379C34.9566 31.8213 34.9566 33.2569 34.0734 34.1434C33.1904 35.0272 31.7576 35.0272 30.8744 34.1434L26.4522 29.712C25.5689 28.826 25.5689 27.3904 26.4522 26.5067C26.4691 26.4897 26.4862 26.4731 26.5035 26.4567C27.3329 25.6128 27.9921 24.6162 28.4446 23.5215C28.8925 22.438 29.1295 21.279 29.1431 20.107C29.1414 20.0715 29.1406 20.0359 29.1406 20C29.1406 19.9642 29.1414 19.9285 29.1431 19.8931C29.1295 18.7211 28.8925 17.562 28.4446 16.4785C28.2552 16.0203 28.0296 15.5793 27.7704 15.1594L23.8816 19.0561C23.0372 19.9022 21.6681 19.9022 20.8236 19.0561C19.9792 18.2099 19.9792 16.8381 20.8236 15.9919L24.6934 12.1143C24.3038 11.8795 23.8964 11.6735 23.4744 11.4983C22.3926 11.0493 21.2354 10.8119 20.0652 10.7985C20.0303 10.8001 19.9952 10.8009 19.9599 10.8009C19.9246 10.8009 19.8894 10.8001 19.8545 10.7985C18.6844 10.8119 17.5273 11.0494 16.4455 11.4983C15.3546 11.9511 14.3614 12.6103 13.5199 13.4396C13.5025 13.4583 13.4847 13.4767 13.4666 13.4948C12.5846 14.3799 11.152 14.3799 10.2676 13.4961V13.4937L5.80867 9.02707L5.80991 9.02574C4.96314 8.13837 4.97538 6.73081 5.84523 5.85804C6.7175 4.98527 8.12091 4.97301 9.00784 5.82265V5.8214L9.04199 5.85562L9.04346 5.85717L9.04441 5.85807L9.04479 5.85827C9.04575 5.8588 9.04631 5.85922 9.04656 5.85965L9.04673 5.86058L9.04674 5.86107L9.04675 5.86171L12.5252 9.34624C13.2951 8.80683 14.123 8.35151 14.995 7.98957C15.8667 7.6278 16.773 7.36325 17.6976 7.19918V2.21439H17.6988C17.7268 0.987616 18.7283 0 19.9599 0Z" fill="#0066FF"/>
<path d="M53.2262 27.7398V12.4336H56.6221V27.7398H53.2262ZM55.8434 27.7398V24.748H63.3923V27.7398H55.8434Z" fill="#000347"/>
<path d="M69.9404 27.9783C68.8589 27.9783 67.8783 27.7398 66.9987 27.2629C66.1335 26.7715 65.4486 26.1066 64.9439 25.2683C64.4392 24.43 64.1868 23.4905 64.1868 22.4499C64.1868 21.4092 64.4392 20.477 64.9439 19.6531C65.4486 18.8293 66.1335 18.1789 66.9987 17.7019C67.8639 17.2105 68.8445 16.9648 69.9404 16.9648C71.0363 16.9648 72.0168 17.2033 72.882 17.6802C73.7472 18.1572 74.4322 18.8148 74.9369 19.6531C75.4416 20.477 75.6939 21.4092 75.6939 22.4499C75.6939 23.4905 75.4416 24.43 74.9369 25.2683C74.4322 26.1066 73.7472 26.7715 72.882 27.2629C72.0168 27.7398 71.0363 27.9783 69.9404 27.9783ZM69.9404 24.9648C70.4162 24.9648 70.8344 24.8636 71.1949 24.6612C71.5554 24.4444 71.8294 24.1481 72.0168 23.7724C72.2187 23.3821 72.3197 22.9413 72.3197 22.4499C72.3197 21.9584 72.2187 21.5321 72.0168 21.1707C71.815 20.7949 71.5338 20.5059 71.1733 20.3035C70.8272 20.0867 70.4162 19.9783 69.9404 19.9783C69.4789 19.9783 69.068 20.0867 68.7075 20.3035C68.347 20.5059 68.0658 20.7949 67.8639 21.1707C67.662 21.5465 67.5611 21.9801 67.5611 22.4715C67.5611 22.9485 67.662 23.3821 67.8639 23.7724C68.0658 24.1481 68.347 24.4444 68.7075 24.6612C69.068 24.8636 69.4789 24.9648 69.9404 24.9648Z" fill="#000347"/>
<path d="M81.7324 27.9566C80.7662 27.9566 79.901 27.7182 79.1368 27.2412C78.3869 26.7642 77.7885 26.1138 77.3415 25.29C76.9089 24.4661 76.6926 23.5266 76.6926 22.4715C76.6926 21.4164 76.9089 20.477 77.3415 19.6531C77.7885 18.8293 78.3869 18.1789 79.1368 17.7019C79.901 17.2249 80.7662 16.9864 81.7324 16.9864C82.4389 16.9864 83.0734 17.1238 83.6358 17.3984C84.2126 17.673 84.6812 18.056 85.0417 18.5474C85.4022 19.0244 85.6041 19.5736 85.6474 20.1951V24.748C85.6041 25.3695 85.4022 25.9259 85.0417 26.4173C84.6957 26.8943 84.2342 27.2701 83.6574 27.5447C83.0806 27.8193 82.4389 27.9566 81.7324 27.9566ZM82.4029 24.9648C83.1095 24.9648 83.6791 24.7335 84.1117 24.271C84.5443 23.794 84.7606 23.1942 84.7606 22.4715C84.7606 21.9801 84.6596 21.5465 84.4577 21.1707C84.2703 20.7949 83.9963 20.5059 83.6358 20.3035C83.2897 20.0867 82.886 19.9783 82.4245 19.9783C81.9631 19.9783 81.5521 20.0867 81.1916 20.3035C80.8455 20.5059 80.5644 20.7949 80.3481 21.1707C80.1462 21.5465 80.0452 21.9801 80.0452 22.4715C80.0452 22.9485 80.1462 23.3749 80.3481 23.7507C80.5499 24.1265 80.8311 24.4228 81.1916 24.6396C81.5521 24.8564 81.9559 24.9648 82.4029 24.9648ZM84.6308 27.7398V24.8997L85.1283 22.3415L84.6308 19.7832V17.2033H87.8753V27.7398H84.6308Z" fill="#000347"/>
<path d="M94.6828 27.9566C93.6878 27.9566 92.8009 27.7182 92.0223 27.2412C91.258 26.7642 90.6524 26.1138 90.2054 25.29C89.7728 24.4661 89.5565 23.5266 89.5565 22.4715C89.5565 21.4164 89.7728 20.477 90.2054 19.6531C90.6524 18.8293 91.258 18.1789 92.0223 17.7019C92.8009 17.2249 93.6878 16.9864 94.6828 16.9864C95.4037 16.9864 96.0526 17.1238 96.6294 17.3984C97.2207 17.673 97.7037 18.056 98.0786 18.5474C98.468 19.0244 98.6843 19.5736 98.7275 20.1951V24.6396C98.6843 25.2611 98.4752 25.8248 98.1003 26.3306C97.7254 26.822 97.2423 27.2195 96.6511 27.523C96.0599 27.8121 95.4037 27.9566 94.6828 27.9566ZM95.2668 24.9648C95.7426 24.9648 96.1536 24.8636 96.4997 24.6612C96.8457 24.4444 97.1197 24.1481 97.3216 23.7724C97.5235 23.3966 97.6244 22.963 97.6244 22.4715C97.6244 21.9801 97.5235 21.5537 97.3216 21.1924C97.1341 20.8166 96.8602 20.5203 96.4997 20.3035C96.1536 20.0867 95.7498 19.9783 95.2884 19.9783C94.827 19.9783 94.416 20.0867 94.0555 20.3035C93.7094 20.5203 93.4282 20.8166 93.2119 21.1924C93.01 21.5682 92.9091 21.9946 92.9091 22.4715C92.9091 22.9485 93.01 23.3749 93.2119 23.7507C93.4138 24.1265 93.695 24.4228 94.0555 24.6396C94.416 24.8564 94.8197 24.9648 95.2668 24.9648ZM100.739 27.7398H97.4946V24.8997L97.9921 22.3415L97.4297 19.7832V12H100.739V27.7398Z" fill="#000347"/>
<path d="M108.681 27.7398V12.8455H111.99V27.7398H108.681ZM106.301 20.0217V17.2033H114.369V20.0217H106.301Z" fill="#000347"/>
<path d="M120.807 27.9783C119.668 27.9783 118.652 27.7471 117.758 27.2846C116.878 26.8076 116.186 26.15 115.681 25.3117C115.176 24.4734 114.924 23.5266 114.924 22.4715C114.924 21.4164 115.169 20.477 115.66 19.6531C116.164 18.8148 116.842 18.1572 117.693 17.6802C118.543 17.2033 119.502 16.9648 120.569 16.9648C121.608 16.9648 122.523 17.1888 123.316 17.6369C124.11 18.0849 124.73 18.7064 125.177 19.5014C125.638 20.2963 125.869 21.2069 125.869 22.2331C125.869 22.421 125.854 22.6233 125.826 22.8401C125.811 23.0425 125.775 23.2809 125.717 23.5556L116.654 23.5772V21.3008L124.311 21.2791L122.884 22.2331C122.869 21.626 122.776 21.1274 122.603 20.7371C122.43 20.3324 122.17 20.0289 121.824 19.8266C121.492 19.6098 121.081 19.5014 120.591 19.5014C120.072 19.5014 119.618 19.6242 119.228 19.8699C118.854 20.1012 118.558 20.4336 118.342 20.8672C118.14 21.3008 118.039 21.8284 118.039 22.4499C118.039 23.0714 118.147 23.6061 118.363 24.0542C118.594 24.4878 118.911 24.8275 119.315 25.0732C119.733 25.3044 120.223 25.4201 120.786 25.4201C121.305 25.4201 121.774 25.3333 122.192 25.1599C122.61 24.972 122.978 24.6974 123.295 24.336L125.112 26.1572C124.593 26.7642 123.965 27.2195 123.23 27.523C122.495 27.8266 121.687 27.9783 120.807 27.9783Z" fill="#000347"/>
<path d="M131.295 28C130.675 28 130.062 27.9205 129.456 27.7615C128.865 27.6025 128.31 27.3785 127.791 27.0894C127.286 26.7859 126.853 26.439 126.493 26.0488L128.375 24.1409C128.721 24.5167 129.132 24.813 129.608 25.0298C130.083 25.2322 130.603 25.3333 131.165 25.3333C131.554 25.3333 131.85 25.2755 132.052 25.1599C132.268 25.0443 132.376 24.8853 132.376 24.6829C132.376 24.4228 132.246 24.2276 131.987 24.0976C131.742 23.953 131.424 23.8302 131.035 23.729C130.646 23.6134 130.235 23.4905 129.802 23.3604C129.37 23.2304 128.959 23.0497 128.569 22.8184C128.18 22.5872 127.863 22.2692 127.618 21.8645C127.372 21.4453 127.25 20.9178 127.25 20.2818C127.25 19.6025 127.423 19.0172 127.769 18.5257C128.115 18.0199 128.605 17.6224 129.24 17.3333C129.874 17.0443 130.617 16.8997 131.468 16.8997C132.362 16.8997 133.184 17.0587 133.934 17.3767C134.698 17.6802 135.318 18.1355 135.794 18.7425L133.912 20.6504C133.58 20.2602 133.205 19.9855 132.787 19.8266C132.383 19.6676 131.987 19.5881 131.598 19.5881C131.223 19.5881 130.941 19.6459 130.754 19.7615C130.566 19.8627 130.473 20.0145 130.473 20.2168C130.473 20.4336 130.595 20.607 130.84 20.7371C131.086 20.8672 131.403 20.9828 131.792 21.084C132.182 21.1852 132.592 21.308 133.025 21.4526C133.458 21.5971 133.869 21.7922 134.258 22.0379C134.647 22.2836 134.965 22.6161 135.21 23.0352C135.455 23.4399 135.577 23.9747 135.577 24.6396C135.577 25.6658 135.188 26.4824 134.409 27.0894C133.645 27.6965 132.607 28 131.295 28Z" fill="#000347"/>
<path d="M138.865 27.7398V12.8455H142.175V27.7398H138.865ZM136.486 20.0217V17.2033H144.554V20.0217H136.486Z" fill="#000347"/>
<path d="M150.992 27.9783C149.853 27.9783 148.836 27.7471 147.942 27.2846C147.063 26.8076 146.37 26.15 145.866 25.3117C145.361 24.4734 145.109 23.5266 145.109 22.4715C145.109 21.4164 145.354 20.477 145.844 19.6531C146.349 18.8148 147.027 18.1572 147.877 17.6802C148.728 17.2033 149.687 16.9648 150.754 16.9648C151.792 16.9648 152.708 17.1888 153.501 17.6369C154.294 18.0849 154.914 18.7064 155.361 19.5014C155.823 20.2963 156.053 21.2069 156.053 22.2331C156.053 22.421 156.039 22.6233 156.01 22.8401C155.996 23.0425 155.96 23.2809 155.902 23.5556L146.839 23.5772V21.3008L154.496 21.2791L153.069 22.2331C153.054 21.626 152.96 21.1274 152.787 20.7371C152.614 20.3324 152.355 20.0289 152.009 19.8266C151.677 19.6098 151.266 19.5014 150.776 19.5014C150.257 19.5014 149.802 19.6242 149.413 19.8699C149.038 20.1012 148.743 20.4336 148.526 20.8672C148.324 21.3008 148.223 21.8284 148.223 22.4499C148.223 23.0714 148.332 23.6061 148.548 24.0542C148.779 24.4878 149.096 24.8275 149.5 25.0732C149.918 25.3044 150.408 25.4201 150.97 25.4201C151.49 25.4201 151.958 25.3333 152.376 25.1599C152.795 24.972 153.162 24.6974 153.479 24.336L155.296 26.1572C154.777 26.7642 154.15 27.2195 153.415 27.523C152.679 27.8266 151.872 27.9783 150.992 27.9783Z" fill="#000347"/>
<path d="M157.651 27.7398V17.2033H160.96V27.7398H157.651ZM160.96 21.9512L159.576 20.8672C159.85 19.6387 160.311 18.6847 160.96 18.0054C161.609 17.3261 162.51 16.9864 163.664 16.9864C164.169 16.9864 164.608 17.0659 164.983 17.2249C165.373 17.3695 165.712 17.6007 166 17.9187L164.032 20.4119C163.887 20.2529 163.707 20.1301 163.491 20.0434C163.275 19.9566 163.029 19.9133 162.756 19.9133C162.208 19.9133 161.768 20.0867 161.436 20.4336C161.119 20.766 160.96 21.2719 160.96 21.9512Z" fill="#000347"/>
<path d="M108.681 27.7398V12.8455H111.99V27.7398H108.681ZM106.301 20.0217V17.2033H114.369V20.0217H106.301Z" fill="#0066FF"/>
<path d="M120.807 27.9783C119.668 27.9783 118.652 27.7471 117.758 27.2846C116.878 26.8076 116.186 26.15 115.681 25.3117C115.176 24.4734 114.924 23.5266 114.924 22.4715C114.924 21.4164 115.169 20.477 115.659 19.6531C116.164 18.8148 116.842 18.1572 117.693 17.6802C118.543 17.2033 119.502 16.9648 120.569 16.9648C121.608 16.9648 122.523 17.1888 123.316 17.6369C124.11 18.0849 124.73 18.7064 125.177 19.5014C125.638 20.2963 125.869 21.2069 125.869 22.2331C125.869 22.421 125.854 22.6233 125.826 22.8401C125.811 23.0425 125.775 23.2809 125.717 23.5556L116.654 23.5772V21.3008L124.311 21.2791L122.884 22.2331C122.869 21.626 122.776 21.1274 122.603 20.7371C122.43 20.3324 122.17 20.0289 121.824 19.8266C121.492 19.6098 121.081 19.5014 120.591 19.5014C120.072 19.5014 119.618 19.6242 119.228 19.8699C118.854 20.1012 118.558 20.4336 118.342 20.8672C118.14 21.3008 118.039 21.8284 118.039 22.4499C118.039 23.0714 118.147 23.6061 118.363 24.0542C118.594 24.4878 118.911 24.8275 119.315 25.0732C119.733 25.3044 120.223 25.4201 120.786 25.4201C121.305 25.4201 121.774 25.3333 122.192 25.1599C122.61 24.972 122.978 24.6974 123.295 24.336L125.112 26.1572C124.593 26.7642 123.965 27.2195 123.23 27.523C122.495 27.8266 121.687 27.9783 120.807 27.9783Z" fill="#0066FF"/>
<path d="M131.295 28C130.675 28 130.062 27.9205 129.456 27.7615C128.865 27.6025 128.31 27.3785 127.791 27.0894C127.286 26.7859 126.853 26.439 126.493 26.0488L128.375 24.1409C128.721 24.5167 129.132 24.813 129.608 25.0298C130.083 25.2322 130.603 25.3333 131.165 25.3333C131.554 25.3333 131.85 25.2755 132.052 25.1599C132.268 25.0443 132.376 24.8853 132.376 24.6829C132.376 24.4228 132.246 24.2276 131.987 24.0976C131.742 23.953 131.424 23.8302 131.035 23.729C130.646 23.6134 130.235 23.4905 129.802 23.3604C129.37 23.2304 128.959 23.0497 128.569 22.8184C128.18 22.5872 127.863 22.2692 127.618 21.8645C127.372 21.4453 127.25 20.9178 127.25 20.2818C127.25 19.6025 127.423 19.0172 127.769 18.5257C128.115 18.0199 128.605 17.6224 129.24 17.3333C129.874 17.0443 130.617 16.8997 131.468 16.8997C132.362 16.8997 133.184 17.0587 133.934 17.3767C134.698 17.6802 135.318 18.1355 135.794 18.7425L133.912 20.6504C133.58 20.2602 133.205 19.9855 132.787 19.8266C132.383 19.6676 131.987 19.5881 131.597 19.5881C131.223 19.5881 130.941 19.6459 130.754 19.7615C130.566 19.8627 130.473 20.0145 130.473 20.2168C130.473 20.4336 130.595 20.607 130.84 20.7371C131.086 20.8672 131.403 20.9828 131.792 21.084C132.182 21.1852 132.592 21.308 133.025 21.4526C133.458 21.5971 133.869 21.7922 134.258 22.0379C134.647 22.2837 134.965 22.6161 135.21 23.0352C135.455 23.4399 135.577 23.9747 135.577 24.6396C135.577 25.6658 135.188 26.4824 134.409 27.0894C133.645 27.6965 132.607 28 131.295 28Z" fill="#0066FF"/>
<path d="M138.865 27.7398V12.8455H142.175V27.7398H138.865ZM136.486 20.0217V17.2033H144.554V20.0217H136.486Z" fill="#0066FF"/>
<path d="M150.992 27.9783C149.853 27.9783 148.836 27.7471 147.942 27.2846C147.063 26.8076 146.37 26.15 145.866 25.3117C145.361 24.4734 145.109 23.5266 145.109 22.4715C145.109 21.4164 145.354 20.477 145.844 19.6531C146.349 18.8148 147.027 18.1572 147.877 17.6802C148.728 17.2033 149.687 16.9648 150.754 16.9648C151.792 16.9648 152.708 17.1888 153.501 17.6369C154.294 18.0849 154.914 18.7064 155.361 19.5014C155.823 20.2963 156.053 21.2069 156.053 22.2331C156.053 22.421 156.039 22.6233 156.01 22.8401C155.996 23.0425 155.96 23.2809 155.902 23.5556L146.839 23.5772V21.3008L154.496 21.2791L153.069 22.2331C153.054 21.626 152.96 21.1274 152.787 20.7371C152.614 20.3324 152.355 20.0289 152.009 19.8266C151.677 19.6098 151.266 19.5014 150.776 19.5014C150.257 19.5014 149.802 19.6242 149.413 19.8699C149.038 20.1012 148.743 20.4336 148.526 20.8672C148.324 21.3008 148.223 21.8284 148.223 22.4499C148.223 23.0714 148.332 23.6061 148.548 24.0542C148.779 24.4878 149.096 24.8275 149.5 25.0732C149.918 25.3044 150.408 25.4201 150.97 25.4201C151.49 25.4201 151.958 25.3333 152.376 25.1599C152.795 24.972 153.162 24.6974 153.479 24.336L155.296 26.1572C154.777 26.7642 154.15 27.2195 153.415 27.523C152.679 27.8266 151.872 27.9783 150.992 27.9783Z" fill="#0066FF"/>
<path d="M157.651 27.7398V17.2033H160.96V27.7398H157.651ZM160.96 21.9512L159.576 20.8672C159.85 19.6387 160.311 18.6847 160.96 18.0054C161.609 17.3261 162.51 16.9864 163.664 16.9864C164.169 16.9864 164.608 17.0659 164.983 17.2249C165.373 17.3695 165.712 17.6007 166 17.9187L164.032 20.4119C163.887 20.2529 163.707 20.1301 163.491 20.0434C163.275 19.9566 163.029 19.9133 162.755 19.9133C162.208 19.9133 161.768 20.0867 161.436 20.4336C161.119 20.766 160.96 21.2719 160.96 21.9512Z" fill="#0066FF"/>
</svg>
