<svg width="40" height="40" viewBox="0 0 40 40" fill="none" xmlns="http://www.w3.org/2000/svg">
<path d="M22.221 31.4673C22.221 30.2149 21.2086 29.1993 19.9599 29.1993C18.71 29.1993 17.6975 30.2149 17.6975 31.4673V37.7345C17.6975 38.9845 18.7098 40 19.9599 40C21.2086 40 22.221 38.9845 22.221 37.7345V31.4673Z" fill="#000347"/>
<path d="M2.21003 22.2681H8.51575C9.76556 22.2681 10.778 21.2525 10.778 19.9999C10.778 18.7487 9.76563 17.7343 8.51575 17.7343H2.20995C0.98439 17.7636 0 18.7658 0 20C0 21.2354 0.98439 22.2364 2.21003 22.2657V22.2681Z" fill="#000347"/>
<path d="M10.2675 26.5064L5.84756 30.9352L5.84712 30.9353L5.84638 30.9359C5.84601 30.9362 5.84561 30.9368 5.84522 30.9376C5.84522 30.9376 5.8439 30.9376 5.8428 30.9401L5.80865 30.9743H5.80998C4.96329 31.8628 4.97545 33.2691 5.8453 34.1434C6.71757 35.0148 8.12098 35.0272 9.00791 34.18L13.4667 29.712C14.3512 28.8257 14.3512 27.3901 13.4667 26.5067C12.5845 25.6202 11.1519 25.6202 10.2675 26.5064Z" fill="#000347"/>
<path d="M19.9599 0C21.1915 0 22.1918 0.987616 22.221 2.21439V7.19894C23.1461 7.36299 24.0528 7.62762 24.9249 7.98957C25.7967 8.35141 26.6244 8.80658 27.3941 9.34579L30.872 5.86179C30.8725 5.86057 30.8728 5.85977 30.8732 5.85931C30.8734 5.85895 30.8738 5.85864 30.8744 5.85812C31.7576 4.97309 33.1903 4.97316 34.0733 5.85812C34.9565 6.74308 34.9565 8.17868 34.0733 9.06489L30.593 12.5512C31.1311 13.3224 31.5853 14.1517 31.9464 15.0251C32.3076 15.8989 32.5717 16.8075 32.7354 17.7344H37.6562C38.9061 17.7344 39.9196 18.7487 39.9196 20C39.9196 21.2525 38.9061 22.2681 37.6562 22.2681H32.735C32.5712 23.1942 32.3073 24.1019 31.9464 24.9749C31.5851 25.8487 31.1307 26.6783 30.5924 27.4497L34.0709 30.9352C34.0713 30.9352 34.0716 30.9352 34.0719 30.9354C34.0723 30.9356 34.0726 30.9362 34.0734 30.9379C34.9566 31.8213 34.9566 33.2569 34.0734 34.1434C33.1904 35.0272 31.7576 35.0272 30.8744 34.1434L26.4522 29.712C25.5689 28.826 25.5689 27.3904 26.4522 26.5067C26.4691 26.4897 26.4862 26.4731 26.5035 26.4567C27.3329 25.6128 27.9921 24.6162 28.4446 23.5215C28.8925 22.438 29.1295 21.279 29.1431 20.107C29.1414 20.0715 29.1406 20.0359 29.1406 20C29.1406 19.9642 29.1414 19.9285 29.1431 19.8931C29.1295 18.7211 28.8925 17.562 28.4446 16.4785C28.2552 16.0203 28.0296 15.5793 27.7704 15.1594L23.8816 19.0561C23.0372 19.9022 21.6681 19.9022 20.8236 19.0561C19.9792 18.2099 19.9792 16.8381 20.8236 15.9919L24.6934 12.1143C24.3038 11.8795 23.8964 11.6735 23.4744 11.4983C22.3926 11.0493 21.2354 10.8119 20.0652 10.7985C20.0303 10.8001 19.9952 10.8009 19.9599 10.8009C19.9246 10.8009 19.8894 10.8001 19.8545 10.7985C18.6844 10.8119 17.5273 11.0494 16.4455 11.4983C15.3546 11.9511 14.3614 12.6103 13.5199 13.4396C13.5025 13.4583 13.4847 13.4767 13.4666 13.4948C12.5846 14.3799 11.152 14.3799 10.2676 13.4961V13.4937L5.80867 9.02707L5.80991 9.02574C4.96314 8.13837 4.97538 6.73081 5.84523 5.85804C6.7175 4.98527 8.12091 4.97301 9.00784 5.82265V5.8214L9.04199 5.85562L9.04346 5.85717L9.04441 5.85807L9.04479 5.85827C9.04575 5.8588 9.04631 5.85922 9.04656 5.85965L9.04673 5.86058L9.04674 5.86107L9.04675 5.86171L12.5252 9.34624C13.2951 8.80683 14.123 8.35151 14.995 7.98957C15.8667 7.6278 16.773 7.36325 17.6975 7.19918V2.21439H17.6988C17.7268 0.987616 18.7283 0 19.9599 0Z" fill="#0066FF"/>
</svg>
