<svg width="32" height="32" viewBox="0 0 32 32" fill="none" xmlns="http://www.w3.org/2000/svg">
<circle cx="16" cy="16" r="16" fill="url(#paint0_linear_1_14)"/>
<path d="M10.1273 2.62878H11.1728V8.76304H10.6678C10.0868 8.76304 9.55663 8.98446 9.16187 9.34914C8.76682 9.71442 8.50442 10.2248 8.45979 10.8024C8.18072 14.3912 7.74411 18.2285 7.61285 21.7957C7.61177 22.3735 7.83308 22.9014 8.19802 23.2949C8.56249 23.6881 9.07244 23.9491 9.64911 23.9935L9.82794 24L22.171 24L22.3506 23.9935C22.9273 23.9488 23.4367 23.6878 23.8011 23.2949C24.1651 22.9022 24.3858 22.3748 24.3858 21.7964L24.3793 21.6182L23.5392 10.8021C23.4943 10.2244 23.2322 9.714 22.8371 9.34888C22.4422 8.98421 21.9122 8.76278 21.3312 8.76278H20.8273V2.62852H21.8728C22.4232 2.62852 22.9343 2.52752 23.4034 2.32569C23.877 2.12015 24.303 1.8153 24.68 1.41196L26 0L6 0L7.31998 1.41196C7.69712 1.81534 8.12304 2.12031 8.59161 2.3234C9.05861 2.52601 9.5728 2.62878 10.1273 2.62878ZM12.9503 2.62878L19.0495 2.62878V8.76304L12.9503 8.76304V2.62878ZM16.2941 16.5333C16.2104 16.6955 16.0104 16.7593 15.8479 16.6759C15.6854 16.5923 15.6215 16.3926 15.705 16.2304L17.1872 13.3807C17.2709 13.2185 17.4709 13.1546 17.6333 13.238C17.7958 13.3216 17.8597 13.5213 17.7762 13.6835L16.2941 16.5333ZM19.5724 12.8146C20.4867 13.7274 21.0523 14.9889 21.0523 16.3819C21.0523 17.775 20.4867 19.0363 19.5724 19.9491C18.6582 20.8619 17.3949 21.4266 15.9996 21.4266C14.6042 21.4266 13.3409 20.8619 12.4267 19.9491C11.5124 19.0363 10.9468 17.775 10.9468 16.3819C10.9468 14.989 11.5124 13.7274 12.4267 12.8146C13.3409 11.9018 14.6042 11.3371 15.9996 11.3371C17.3949 11.3371 18.6582 11.9018 19.5724 12.8146Z" fill="white"/>
<defs>
<linearGradient id="paint0_linear_1_14" x1="0" y1="0" x2="32" y2="32" gradientUnits="userSpaceOnUse">
<stop stop-color="#0048D2"/>
<stop offset="1" stop-color="#0087D2"/>
</linearGradient>
</defs>
</svg>
